<?xml version="1.0" encoding="utf-8"?>
<!-- Generator: Adobe Illustrator 16.0.0, SVG Export Plug-In . SVG Version: 6.00 Build 0)  -->
<!DOCTYPE svg PUBLIC "-//W3C//DTD SVG 1.1//EN" "http://www.w3.org/Graphics/SVG/1.1/DTD/svg11.dtd">
<svg version="1.1" id="图层_1" xmlns="http://www.w3.org/2000/svg" xmlns:xlink="http://www.w3.org/1999/xlink" x="0px" y="0px"
	 width="595.28px" height="841.89px" viewBox="0 0 595.28 841.89" enable-background="new 0 0 595.28 841.89" xml:space="preserve">
<path fill="#1F394F" d="M384.857,424.086c0.004,0,0.008,0,0.012,0h-0.027C384.846,424.086,384.85,424.086,384.857,424.086z"/>
<path fill="#1F394F" d="M340.91,411.902c-1.256-3.548-4.639-6.09-8.616-6.09h-21.495v6.09h21.495v0.002
	c1.681,0,3.046,1.365,3.046,3.045c0,1.682-1.365,3.047-3.046,3.047v0.002H319.38c-0.868,0.051-1.701,0.225-2.487,0.498
	c-2.603,0.923-4.662,2.986-5.577,5.591c-0.333,0.949-0.517,1.966-0.517,3.025v9.158h6.094v-9.158l0,0l0,0
	c0-1.568,1.188-2.86,2.714-3.025h5.898l5.966,12.184h6.783l-5.964-12.184h0.004c3.978,0,7.36-2.542,8.616-6.089
	c0.336-0.957,0.52-1.978,0.52-3.049C341.43,413.88,341.246,412.858,340.91,411.902z"/>
<polygon fill="#1F394F" points="302.402,436.278 308.883,436.278 297.838,405.82 295.774,405.82 289.294,405.82 278.257,436.254 
	278.257,436.278 284.728,436.278 286.945,430.168 291.149,430.168 295.562,430.168 297.771,424.077 293.355,424.077 
	289.153,424.077 293.566,411.906 293.566,411.908 "/>
<g>
	<polygon fill="#1F394F" points="251.973,405.812 245.881,405.812 245.881,436.27 251.973,436.27 251.973,424.086 268.273,424.086 
		270.421,417.998 251.973,417.998 	"/>
	<polygon fill="#1F394F" points="270.421,405.812 270.421,411.869 270.421,417.998 270.421,436.27 276.513,436.27 276.513,405.812 	
		"/>
</g>
<path fill="#1F394F" d="M222.471,430.18v-0.002l0,0c-1.682,0-3.043-1.365-3.043-3.045h-0.002v-12.185h0.002l0,0
	c0-1.68,1.361-3.045,3.043-3.045l0,0v-0.002h19.281l2.211-6.09h-21.492c-1.068,0-2.092,0.184-3.045,0.524
	c-2.596,0.915-4.652,2.973-5.57,5.565c-0.338,0.956-0.521,1.979-0.521,3.047l0,0v12.185c0,1.068,0.184,2.091,0.521,3.047
	c0.918,2.593,2.975,4.648,5.57,5.567c0.953,0.337,1.977,0.522,3.045,0.522h19.285l2.207-6.09H222.471z"/>
<polygon fill="#1F394F" points="180.787,405.812 180.787,411.902 209.205,411.902 211.414,405.812 "/>
<path fill="#1F394F" d="M189.926,430.18v-0.002l0,0c-1.686,0-3.047-1.365-3.047-3.045l0,0v-3.047h22.328l2.207-6.089h-30.627v6.089
	v3.047l0,0c0,1.068,0.184,2.091,0.523,3.047c0.92,2.593,2.973,4.648,5.568,5.567c0.951,0.337,1.977,0.522,3.047,0.522h13.428h5.855
	l2.209-6.09l0,0H189.926z"/>
<polygon fill="#1F394F" points="343.17,405.812 343.17,411.902 355.443,411.902 355.443,436.27 361.533,436.27 361.533,411.902 
	371.592,411.902 373.797,405.812 "/>
<path fill="#1F394F" d="M389.908,422.565c-0.129,0.085-0.26,0.165-0.393,0.243C389.648,422.73,389.779,422.65,389.908,422.565
	L389.908,422.565z"/>
<path fill="#1F394F" d="M397.213,417.998h-12.355v-0.002l0,0c-1.686,0-3.047-1.363-3.047-3.047c0-1.68,1.361-3.045,3.047-3.045l0,0
	v-0.002h19.287l2.205-6.09h-21.492l0,0c-3.98,0-7.363,2.542-8.619,6.09c-0.336,0.956-0.52,1.979-0.52,3.047
	c0,1.071,0.184,2.092,0.52,3.049c1.256,3.543,4.631,6.085,8.604,6.089h12.371l0,0c1.682,0,3.043,1.365,3.043,3.047
	c0,1.68-1.361,3.045-3.043,3.045v0.002h-21.494v6.09h21.494c3.979,0,7.361-2.544,8.617-6.09c0.336-0.956,0.52-1.979,0.52-3.047
	c0-1.069-0.184-2.092-0.52-3.047C404.574,420.54,401.191,417.998,397.213,417.998z"/>
<g>
	<path fill="#A9334C" d="M131.556,385.837c-19.444,0-35.21,15.76-35.21,35.208c0,19.445,15.766,35.208,35.21,35.208
		c3.981,0,7.796-0.695,11.363-1.91c12.672-4.326,22.092-15.648,23.617-29.375c0.143-1.291,0.229-2.596,0.229-3.923
		C166.765,401.597,151,385.837,131.556,385.837z"/>
</g>
<g>
	<path fill="#FFFFFF" d="M155.28,430.553c-0.544-0.205-1.104-0.291-1.65-0.266c0.098-0.433,0.125-0.866,0.086-1.291
		c-0.139-1.541-1.135-2.941-2.675-3.529c-1.584-0.599-3.302-0.173-4.428,0.948c0.446,0.004,0.899,0.088,1.338,0.256
		c2.018,0.763,3.03,3.018,2.269,5.035c-0.282,0.743-0.767,1.35-1.365,1.784c-1.029,0.739-2.397,0.968-3.669,0.484
		c-2.018-0.761-3.031-3.017-2.269-5.035c0.1-0.262,0.226-0.507,0.374-0.739h-0.002c0,0,0,0,0,0.002
		c0.649-1.015,1.206-2.114,1.65-3.285c3.449-9.107-1.139-19.291-10.249-22.741c-9.111-3.449-19.291,1.139-22.741,10.247
		c-0.943,2.485-1.285,5.049-1.099,7.537c0.004,0.082,0.012,0.166,0.02,0.25c0.736,8.456,6.184,16.162,14.651,19.367
		c8.612,3.259,17.962,0.967,24.112-5.104c1.052-1.021,2.64-1.398,4.099-0.847c1.756,0.665,2.749,2.458,2.476,4.241
		c0.657-0.463,1.189-1.12,1.498-1.932C158.522,433.78,157.436,431.369,155.28,430.553z"/>
</g>
<path fill="#1F394F" d="M466.803,421.059h-15.199v6.093h9.105c0,1.681-1.363,3.045-3.045,3.045l0,0h-12.357l0,0
	c-1.682,0-3.045-1.364-3.045-3.045l0,0v-12.207l0,0c0-1.682,1.363-3.045,3.045-3.045l0,0l12.355,0l2.119-6.091h-14.475
	c-1.068,0-2.092,0.185-3.045,0.522c-2.596,0.918-4.652,2.974-5.57,5.569c-0.336,0.953-0.521,1.978-0.521,3.046v0v12.206l0,0
	c0,1.067,0.186,2.092,0.521,3.045c0.918,2.596,2.975,4.652,5.57,5.57c0.953,0.336,1.977,0.521,3.045,0.521h12.357
	c1.068,0,2.094-0.186,3.047-0.521c2.596-0.918,4.652-2.975,5.568-5.57c0.338-0.953,0.523-1.978,0.523-3.045l0,0V421.059z"/>
<path fill="#1F394F" d="M477.854,430.19v-0.002c-1.684,0-3.045-1.363-3.045-3.043l0.002-21.311h-6.092v21.311
	c0,1.067,0.184,2.089,0.523,3.045c0.918,2.593,2.973,4.646,5.566,5.565c0.951,0.336,1.977,0.521,3.045,0.521h16.66l2.209-6.087
	H477.854z"/>
<rect x="180.784" y="405.812" opacity="0" fill="#1F394F" width="30.632" height="30.458"/>
<rect x="213.332" y="405.812" opacity="0" fill="#1F394F" width="30.633" height="30.458"/>
<rect x="245.881" y="405.812" opacity="0" fill="#1F394F" width="30.633" height="30.458"/>
<rect x="278.43" y="405.812" opacity="0" fill="#1F394F" width="30.632" height="30.458"/>
<rect x="310.978" y="405.812" opacity="0" fill="#1F394F" width="30.632" height="30.458"/>
<rect x="343.525" y="405.812" opacity="0" fill="#1F394F" width="30.633" height="30.458"/>
<rect x="376.074" y="405.812" opacity="0" fill="#1F394F" width="30.633" height="30.458"/>
<rect x="403.623" y="405.812" opacity="0" fill="#1F394F" width="30.633" height="30.458"/>
<rect x="436.172" y="405.812" opacity="0" fill="#1F394F" width="30.633" height="30.458"/>
<rect x="468.721" y="405.812" opacity="0" fill="#1F394F" width="30.633" height="30.458"/>
<polygon fill="#1F394F" points="410.639,417.613 410.639,423.7 430.045,423.7 432.255,417.613 "/>
</svg>
